<?xml version="1.0" encoding="utf-8"?>
<!-- Generator: Adobe Illustrator 25.0.0, SVG Export Plug-In . SVG Version: 6.00 Build 0)  -->
<svg version="1.1" id="Layer_1" xmlns="http://www.w3.org/2000/svg" xmlns:xlink="http://www.w3.org/1999/xlink" x="0px" y="0px"
	 viewBox="0 0 301.9 125.6" style="enable-background:new 0 0 301.9 125.6;" xml:space="preserve">
<style type="text/css">
	.st0{fill:#EAC37E;}
	.st1{clip-path:url(#SVGID_2_);}
	.st2{fill:#F26538;}
	.st3{fill:#EAC37E;}
	.st4{fill:#F16638;}
</style>
<path class="st0" d="M296.9,82.2c0.4-11.8-7.1-14.3-7.1-14.3H278l-0.2-15.2l-15.7-8.5L254.3,28l5.6,17.6l-49.1,0.7
	c-3-1.9-3-24.5-3-24.5l39.7,0.3c1.3,0,2.5-1,2.6-2.3l-20-14.4l-42.6,0.2l0.9,87.8l-12.9,5.2l-1.2,9.4c0.1-0.1,24.6-0.6,24.6-0.6
	c-1.1-27.9,8.3-29.1,8.3-29.1c11.5-1.2,10.2,29.3,10.2,29.3h47.8c0.4,2.7,1.5,8.4,5.1,11.6c2.6,2.3,6.5,2.4,9.1,0.1
	c2.1-1.8,4.3-5.3,4.8-11.7h9.6C298.6,98.3,296.9,82.2,296.9,82.2z M204.9,44c0,2.2-1.8,3.9-4,3.8c-2.1-0.1-3.6-1.9-3.6-4v-16
	c0-2.1,1.5-3.9,3.6-4c2.2-0.1,4,1.6,4,3.8V44z M234.6,89.8h-11.1c-1.9,0-3.6-1.4-3.7-3.3c-0.1-2,1.5-3.7,3.5-3.7h11.1
	c1.9,0,3.6,1.4,3.7,3.3C238.2,88.1,236.6,89.8,234.6,89.8z M272.5,94H248c-2.1,0-3.9-1.7-3.9-3.9V57.6c0-2.1,1.7-3.9,3.9-3.9h24.5
	c2.1,0,3.9,1.7,3.9,3.9v32.5C276.4,92.3,274.6,94,272.5,94z M292.6,89.4h-11.1c-1.9,0-3.6-1.4-3.7-3.3c-0.1-2,1.5-3.7,3.5-3.7h11.1
	c1.9,0,3.6,1.4,3.7,3.3C296.2,87.8,294.6,89.4,292.6,89.4z"/>
<g>
	<g>
		<g>
			<defs>
				<rect id="SVGID_1_" x="792.2" y="36.1" width="320" height="320"/>
			</defs>
			<clipPath id="SVGID_2_">
				<use xlink:href="#SVGID_1_"  style="overflow:visible;"/>
			</clipPath>
			<g class="st1">
				
					<image style="overflow:visible;enable-background:new    ;" width="321" height="321" xlink:href="1356B37E.jpg"  transform="matrix(0.9969 0 0 0.9969 792.1765 36.1176)">
				</image>
			</g>
		</g>
	</g>
</g>
<g>
	<path class="st2" d="M533.1,75l1.2-9.4l12.9-5.2l0.5-89.2l41.2,1.2l20,14.4l-0.2,2.4l-42.1-0.4c0,0,0,22.6,3,24.5l49.1-0.7L613.1-5
		l7.8,16.2l15.7,8.5l0.2,15.2h11.7c0,0,7.4,2.5,7.1,14.3c0,0,1.8,16.1-2.8,25.4h-9.7h-66.7c0,0,1.2-30.5-10.2-29.3
		c0,0-9.4,1.2-8.3,29.1C557.8,74.4,533.2,75,533.1,75z"/>
	<path class="st3" d="M559.8,14.7L559.8,14.7c-2.1,0-3.8-1.7-3.8-3.8V-5.5c0-2.1,1.7-3.8,3.8-3.8l0,0c2.1,0,3.8,1.7,3.8,3.8v16.4
		C563.6,13,561.9,14.7,559.8,14.7z"/>
	<rect x="602.8" y="20.7" class="st3" width="32.3" height="40.2"/>
	<path class="st3" d="M593.3,56.7H582c-1.9,0-3.5-1.6-3.5-3.5l0,0c0-1.9,1.6-3.5,3.5-3.5h11.3c1.9,0,3.5,1.6,3.5,3.5l0,0
		C596.8,55.2,595.2,56.7,593.3,56.7z"/>
	<path class="st3" d="M651.3,56.4H640c-1.9,0-3.5-1.6-3.5-3.5l0,0c0-1.9,1.6-3.5,3.5-3.5h11.3c1.9,0,3.5,1.6,3.5,3.5l0,0
		C654.9,54.8,653.3,56.4,651.3,56.4z"/>
	<path class="st4" d="M624,73.2c0,0,0.5,8.8,5.2,13c2.6,2.3,6.5,2.4,9.1,0.1c2.2-1.9,4.5-5.6,4.9-12.8L624,73.2z"/>
</g>
<g>
	<path class="st3" d="M41.7,108.9c-19.7,0-34.9-11-35.1-30.2h20.3c0.5,8.1,5.6,13.5,14.4,13.5c9,0,14.2-5.1,14.2-12.3
		c0-21.9-48.8-8.7-48.7-45.4c0-18.3,13.8-29.3,33.4-29.3c19.4,0,32.7,10.6,33.9,28.9H53.2c-0.4-6.7-5.4-11.9-13.6-12
		c-7.5-0.3-13,3.6-13,11.9c0,20.3,48.6,9,48.6,44.7C75.2,94.5,63.2,108.9,41.7,108.9z"/>
</g>
<g>
	<path class="st3" d="M87.8,18.3h6.4l8.9,20.9l8.9-20.9h6.4v28.1h-5.6V28.1l-7.5,18.3H101l-7.6-18.3v18.3h-5.6L87.8,18.3L87.8,18.3z
		"/>
	<path class="st3" d="M132.7,23.7c3.6,0,6,1.7,7.4,3.5V24h5.7v22.3h-5.7V43c-1.3,1.9-3.9,3.6-7.4,3.6c-5.6,0-10.1-4.6-10.1-11.6
		S127,23.7,132.7,23.7z M134.2,28.7c-3,0-5.9,2.3-5.9,6.5s2.9,6.6,5.9,6.6c3.1,0,5.9-2.3,5.9-6.6C140.1,31,137.3,28.7,134.2,28.7z"
		/>
	<path class="st3" d="M156.9,46.4h-5.6V24.1h5.6v3.5c1.4-2.3,3.7-3.8,6.8-3.8v5.9h-1.5c-3.3,0-5.3,1.3-5.3,5.6V46.4z"/>
	<path class="st3" d="M168.4,28.7h-2.7v-4.6h2.7v-5.5h5.7v5.5h5v4.6h-5v10.8c0,1.5,0.6,2.1,2.4,2.1h2.6v4.7h-3.6
		c-4.3,0-7.1-1.8-7.1-6.9V28.7z"/>
</g>
<g>
	<g>
		<path class="st0" d="M95,54.4c3.7,0,6.7,3.9,7.9,10.6H99c-0.8-3.2-2.2-4.7-4-4.7c-2.9,0-5,4.2-5,10.9c0,6.6,2.1,10.9,5,10.9
			c1.8,0,3.2-1.6,4-4.8h3.9c-1.1,6.8-4.2,10.6-7.9,10.6c-4.8,0-8.5-6.9-8.5-16.8C86.5,61.4,90.2,54.4,95,54.4z"/>
		<path class="st0" d="M116,81.4h-6.7l-1.1,6.3h-3.5l6-32.9h3.9l6,32.9H117L116,81.4z M112.7,62.4l-2.4,13.8h4.8L112.7,62.4z"/>
		<path class="st0" d="M129.2,54.8c4,0,6,4.6,6,10.1c0,4-1.1,8.1-3.8,9.5l4,13.3h-3.9l-3.7-12.8h-1.6v12.8h-3.4V54.8H129.2z
			 M129.1,60.3h-2.8V70h2.8c1.9,0,2.7-1.9,2.7-4.9C131.8,62.1,131,60.3,129.1,60.3z"/>
		<path class="st0" d="M153.9,64.7H150c-0.8-2.8-2.2-4.2-3.9-4.2c-3,0-5.1,4.2-5.1,10.7c0,6.7,2.1,10.8,5.2,10.8
			c2.6,0,4.2-2.9,4.8-7.6h-5.8v-5h9.1v5.7c-0.7,6.7-3.7,12.8-8.2,12.8c-4.9,0-8.6-6.9-8.6-16.8c0-9.8,3.7-16.8,8.5-16.8
			C149.8,54.4,152.8,58.1,153.9,64.7z"/>
		<path class="st0" d="M164.5,88c-4.7,0-8.6-7-8.6-16.9c0-9.8,3.9-16.8,8.6-16.8c4.8,0,8.6,7,8.6,16.8C173.1,81,169.3,88,164.5,88z
			 M164.5,82.1c3,0,5.1-4.3,5.1-11s-2.1-10.9-5.1-10.9s-5.1,4.2-5.1,10.9S161.5,82.1,164.5,82.1z"/>
	</g>
</g>
</svg>
