<?xml version="1.0" encoding="utf-8"?>
<!-- Generator: Adobe Illustrator 25.0.0, SVG Export Plug-In . SVG Version: 6.00 Build 0)  -->
<svg version="1.1" id="Layer_1" xmlns="http://www.w3.org/2000/svg" xmlns:xlink="http://www.w3.org/1999/xlink" x="0px" y="0px"
	 viewBox="0 0 436.5 282.8" style="enable-background:new 0 0 436.5 282.8;" xml:space="preserve">
<style type="text/css">
	.st0{fill:#F16638;}
	.st1{fill:#F26538;}
	.st2{fill:#FFFFFF;}
	.st3{font-family:'FranklinGothic-Medium';}
	.st4{font-size:146.9074px;}
	.st5{font-size:53.4393px;}
	.st6{fill:#FF7E25;}
	.st7{font-size:62.5649px;}
</style>
<path class="st0" d="M368.4,159.4c0.4-11.8-7.1-14.3-7.1-14.3h-11.8l-0.2-15.2l-15.7-8.5l-7.8-16.2l5.6,17.6l-49.1,0.7
	c-3-1.9-3-24.5-3-24.5l39.7,0.3c1.3,0,2.5-1,2.6-2.3l-20-14.4l-41.2-1.2l-0.5,89.2l-12.9,5.2l-1.2,9.4c0.1-0.1,24.6-0.6,24.6-0.6
	c-1.1-27.9,8.3-29.1,8.3-29.1c11.5-1.2,10.2,29.3,10.2,29.3h47.8c0.4,2.7,1.5,8.4,5.1,11.6c2.6,2.3,6.5,2.4,9.1,0.1
	c2.1-1.8,4.3-5.3,4.8-11.7h9.6C370.1,175.5,368.4,159.4,368.4,159.4z M276.4,121.2c0,2.2-1.8,3.9-4,3.8c-2.1-0.1-3.6-1.9-3.6-4v-16
	c0-2.1,1.5-3.9,3.6-4c2.2-0.1,4,1.6,4,3.8V121.2z M306.1,167H295c-1.9,0-3.6-1.4-3.7-3.3c-0.1-2,1.5-3.7,3.5-3.7l11.1,0
	c1.9,0,3.6,1.4,3.7,3.3C309.7,165.3,308.1,167,306.1,167z M344,171.2h-24.5c-2.1,0-3.9-1.7-3.9-3.9v-32.5c0-2.1,1.7-3.9,3.9-3.9H344
	c2.1,0,3.9,1.7,3.9,3.9v32.5C347.9,169.5,346.1,171.2,344,171.2z M364.1,166.6H353c-1.9,0-3.6-1.4-3.7-3.3c-0.1-2,1.5-3.7,3.5-3.7
	l11.1,0c1.9,0,3.6,1.4,3.7,3.3C367.7,165,366.1,166.6,364.1,166.6z"/>
<image style="overflow:visible;" width="320" height="320" xlink:href="../../Downloads/dc44269f-0c19-485d-b3c2-7006f5f32ffb.jpg"  transform="matrix(1 0 0 1 863.7059 113.2941)">
</image>
<g>
	<path class="st1" d="M604.6,152.2l1.2-9.4l12.9-5.2l0.5-89.2l41.2,1.2l20,14.4l-0.2,2.4L638.1,66c0,0,0,22.6,3,24.5l49.1-0.7
		l-5.6-17.6l7.8,16.2l15.7,8.5l0.2,15.2H720c0,0,7.4,2.5,7.1,14.3c0,0,1.8,16.1-2.8,25.4h-9.7h-66.7c0,0,1.2-30.5-10.2-29.3
		c0,0-9.4,1.2-8.3,29.1C629.3,151.6,604.7,152.2,604.6,152.2z"/>
	<path class="st2" d="M631.3,91.9L631.3,91.9c-2.1,0-3.8-1.7-3.8-3.8V71.7c0-2.1,1.7-3.8,3.8-3.8l0,0c2.1,0,3.8,1.7,3.8,3.8v16.4
		C635.1,90.2,633.4,91.9,631.3,91.9z"/>
	<rect x="674.3" y="97.9" class="st2" width="32.3" height="40.2"/>
	<path class="st2" d="M664.8,133.9h-11.3c-1.9,0-3.5-1.6-3.5-3.5v0c0-1.9,1.6-3.5,3.5-3.5h11.3c1.9,0,3.5,1.6,3.5,3.5v0
		C668.3,132.4,666.7,133.9,664.8,133.9z"/>
	<path class="st2" d="M722.8,133.6h-11.3c-1.9,0-3.5-1.6-3.5-3.5l0,0c0-1.9,1.6-3.5,3.5-3.5h11.3c1.9,0,3.5,1.6,3.5,3.5l0,0
		C726.4,132,724.8,133.6,722.8,133.6z"/>
	<path class="st0" d="M695.5,150.4c0,0,0.5,8.8,5.2,13c2.6,2.3,6.5,2.4,9.1,0.1c2.2-1.9,4.5-5.6,4.9-12.8L695.5,150.4z"/>
</g>
<text transform="matrix(0.9348 0 0 1 73.2277 182.3644)" class="st3 st4">S</text>
<text transform="matrix(1 0 0 1 147.4965 127.9663)" class="st3 st5">Mart</text>
<g>
	<text transform="matrix(0.5097 0 0 1 148.3409 182.8681)" class="st6 st3 st7">CARGO</text>
</g>
</svg>
